<svg width="512" height="512" viewBox="0 0 512 512" fill="none" xmlns="http://www.w3.org/2000/svg">
<rect width="512" height="512" fill="#CFE0C3"/>
<path d="M326.483 161.802C330.456 157.234 337.379 156.752 341.947 160.724L365.214 180.959C369.782 184.932 370.264 191.855 366.292 196.423L240.281 341.317C236.308 345.884 229.385 346.367 224.817 342.395L201.55 322.159C196.982 318.187 196.499 311.264 200.472 306.696L326.483 161.802Z" fill="#40798C"/>
<path d="M163.729 239.883C167.701 235.315 174.625 234.833 179.192 238.805L202.46 259.04C207.028 263.013 207.51 269.936 203.538 274.504L183.302 297.771C179.33 302.339 172.407 302.822 167.839 298.849L144.571 278.614C140.004 274.641 139.521 267.718 143.494 263.15L163.729 239.883Z" fill="white"/>
<path d="M212.266 277.868C216.238 273.301 223.162 272.818 227.729 276.791L250.997 297.026C255.565 300.998 256.047 307.922 252.075 312.489L231.839 335.757C227.867 340.325 220.944 340.807 216.376 336.835L193.108 316.599C188.541 312.627 188.058 305.704 192.03 301.136L212.266 277.868Z" fill="white" fill-opacity="0.6"/>
<path fill-rule="evenodd" clip-rule="evenodd" d="M217.96 80.0164C220.863 89.0183 215.92 98.6697 206.918 101.574C179.129 110.538 154.363 127.015 135.359 149.183C116.355 171.35 103.854 198.343 99.2406 227.175C94.6271 256.007 98.0805 285.553 109.219 312.544C120.357 339.535 138.745 362.918 162.349 380.105C185.953 397.292 213.852 407.614 242.959 409.928C272.065 412.242 301.245 406.458 327.268 393.216C353.291 379.974 375.143 359.79 390.406 334.899C405.669 310.007 413.747 281.377 413.747 252.179C413.747 242.72 421.415 235.053 430.874 235.053C440.332 235.053 448 242.72 448 252.179C448 287.698 438.173 322.524 419.607 352.803C401.04 383.083 374.458 407.636 342.802 423.744C311.146 439.852 275.651 446.888 240.244 444.073C204.837 441.258 170.899 428.702 142.186 407.795C113.473 386.887 91.1048 358.443 77.5559 325.61C64.007 292.777 59.8061 256.836 65.4182 221.763C71.0303 186.691 86.2365 153.855 109.354 126.889C132.472 99.9232 162.599 79.8792 196.402 68.975C205.404 66.0712 215.056 71.0146 217.96 80.0164Z" fill="#40798C"/>
<path fill-rule="evenodd" clip-rule="evenodd" d="M217.96 80.0164C220.863 89.0183 215.92 98.6697 206.918 101.574C179.129 110.538 154.363 127.015 135.359 149.183C116.355 171.35 103.854 198.343 99.2406 227.175C94.6271 256.007 98.0805 285.553 109.219 312.544C120.357 339.535 138.745 362.918 162.349 380.105C185.953 397.292 213.852 407.614 242.959 409.928C272.065 412.242 301.245 406.458 327.268 393.216C353.291 379.974 375.143 359.79 390.406 334.899C405.669 310.007 413.747 281.377 413.747 252.179C413.747 242.72 421.415 235.053 430.874 235.053C440.332 235.053 448 242.72 448 252.179C448 287.698 438.173 322.524 419.607 352.803C401.04 383.083 374.458 407.636 342.802 423.744C311.146 439.852 275.651 446.888 240.244 444.073C204.837 441.258 170.899 428.702 142.186 407.795C113.473 386.887 91.1048 358.443 77.5559 325.61C64.007 292.777 59.8061 256.836 65.4182 221.763C71.0303 186.691 86.2365 153.855 109.354 126.889C132.472 99.9232 162.599 79.8792 196.402 68.975C205.404 66.0712 215.056 71.0146 217.96 80.0164Z" fill="url(#paint0_linear_45_2)"/>
<defs>
<linearGradient id="paint0_linear_45_2" x1="448" y1="67.2146" x2="198.641" y2="67.2146" gradientUnits="userSpaceOnUse">
<stop stop-color="white"/>
<stop offset="1" stop-color="white" stop-opacity="0"/>
<stop offset="1" stop-color="white"/>
</linearGradient>
</defs>
</svg>
