<svg width="48" height="48" viewBox="0 0 48 48" fill="none" xmlns="http://www.w3.org/2000/svg">
<rect width="48" height="48" fill="#CFE0C3"/>
<path d="M32.1124 12.7039C32.5664 12.1818 33.3576 12.1267 33.8796 12.5807L36.5388 14.8933C37.0608 15.3473 37.1159 16.1385 36.6619 16.6605L22.2606 33.2198C21.8066 33.7419 21.0154 33.797 20.4934 33.343L17.8342 31.0304C17.3122 30.5764 17.257 29.7852 17.711 29.2632L32.1124 12.7039Z" fill="#40798C"/>
<path d="M13.5119 21.6274C13.9659 21.1054 14.7571 21.0502 15.2791 21.5042L17.9383 23.8168C18.4603 24.2708 18.5155 25.0621 18.0615 25.5841L15.7488 28.2432C15.2949 28.7653 14.5036 28.8204 13.9816 28.3664L11.3225 26.0538C10.8004 25.5998 10.7453 24.8086 11.1993 24.2865L13.5119 21.6274Z" fill="white"/>
<path d="M19.0589 25.9686C19.5129 25.4466 20.3042 25.3914 20.8262 25.8454L23.4853 28.158C24.0074 28.612 24.0625 29.4032 23.6085 29.9253L21.2959 32.5844C20.8419 33.1064 20.0507 33.1616 19.5286 32.7076L16.8695 30.395C16.3475 29.941 16.2923 29.1498 16.7463 28.6277L19.0589 25.9686Z" fill="white" fill-opacity="0.6"/>
<path fill-rule="evenodd" clip-rule="evenodd" d="M19.7097 3.35693C20.0415 4.38571 19.4766 5.48874 18.4478 5.8206C15.2719 6.84505 12.4415 8.7282 10.2696 11.2616C8.09766 13.7951 6.66904 16.88 6.14178 20.1751C5.61452 23.4701 6.00919 26.8468 7.28212 29.9315C8.55504 33.0162 10.6566 35.6885 13.3542 37.6528C16.0518 39.6171 19.2402 40.7967 22.5667 41.0612C25.8932 41.3256 29.228 40.6646 32.2021 39.1512C35.1761 37.6378 37.6735 35.3311 39.4178 32.4863C41.1622 29.6415 42.0854 26.3696 42.0854 23.0326C42.0854 21.9517 42.9617 21.0754 44.0427 21.0754C45.1237 21.0754 46 21.9517 46 23.0326C46 27.0919 44.8769 31.072 42.755 34.5326C40.6332 37.9931 37.5952 40.7991 33.9774 42.6401C30.3596 44.481 26.303 45.2851 22.2565 44.9634C18.21 44.6417 14.3314 43.2068 11.0499 40.8173C7.76839 38.4278 5.21197 35.1771 3.66352 31.4247C2.11508 27.6724 1.63498 23.5648 2.27636 19.5566C2.91775 15.5483 4.6556 11.7956 7.2976 8.7138C9.93961 5.632 13.3827 3.34125 17.246 2.09505C18.2748 1.76318 19.3778 2.32815 19.7097 3.35693Z" fill="#40798C"/>
<path fill-rule="evenodd" clip-rule="evenodd" d="M19.7097 3.35693C20.0415 4.38571 19.4766 5.48874 18.4478 5.8206C15.2719 6.84505 12.4415 8.7282 10.2696 11.2616C8.09766 13.7951 6.66904 16.88 6.14178 20.1751C5.61452 23.4701 6.00919 26.8468 7.28212 29.9315C8.55504 33.0162 10.6566 35.6885 13.3542 37.6528C16.0518 39.6171 19.2402 40.7967 22.5667 41.0612C25.8932 41.3256 29.228 40.6646 32.2021 39.1512C35.1761 37.6378 37.6735 35.3311 39.4178 32.4863C41.1622 29.6415 42.0854 26.3696 42.0854 23.0326C42.0854 21.9517 42.9617 21.0754 44.0427 21.0754C45.1237 21.0754 46 21.9517 46 23.0326C46 27.0919 44.8769 31.072 42.755 34.5326C40.6332 37.9931 37.5952 40.7991 33.9774 42.6401C30.3596 44.481 26.303 45.2851 22.2565 44.9634C18.21 44.6417 14.3314 43.2068 11.0499 40.8173C7.76839 38.4278 5.21197 35.1771 3.66352 31.4247C2.11508 27.6724 1.63498 23.5648 2.27636 19.5566C2.91775 15.5483 4.6556 11.7956 7.2976 8.7138C9.93961 5.632 13.3827 3.34125 17.246 2.09505C18.2748 1.76318 19.3778 2.32815 19.7097 3.35693Z" fill="url(#paint0_linear_52_4)"/>
<defs>
<linearGradient id="paint0_linear_52_4" x1="46" y1="1.89386" x2="17.5018" y2="1.89386" gradientUnits="userSpaceOnUse">
<stop stop-color="white"/>
<stop offset="1" stop-color="white" stop-opacity="0"/>
<stop offset="1" stop-color="white"/>
</linearGradient>
</defs>
</svg>
